<svg width="24" height="25" viewBox="0 0 24 25" fill="none" xmlns="http://www.w3.org/2000/svg">
<g clip-path="url(#clip0_924_906)">
<path d="M11.9998 1.63086C9.92328 1.63259 7.93181 2.45598 6.46036 3.92119C4.9889 5.3864 4.15705 7.37435 4.14648 9.45086C4.14648 12.5642 5.89315 15.1709 7.17315 17.0709L7.40648 17.4175C8.68 19.2633 10.0462 21.0433 11.4998 22.7509L12.0065 23.3442L12.5132 22.7509C13.9666 21.0432 15.3328 19.2631 16.6065 17.4175L16.8398 17.0642C18.1132 15.1642 19.8598 12.5642 19.8598 9.45086C19.8492 7.3732 19.0165 5.38424 17.5436 3.91884C16.0707 2.45344 14.0775 1.63083 11.9998 1.63086ZM11.9998 12.9642C11.1349 12.9642 10.2893 12.7077 9.57012 12.2272C8.85093 11.7466 8.29039 11.0636 7.95938 10.2645C7.62838 9.46534 7.54177 8.58601 7.71052 7.73766C7.87926 6.88932 8.29578 6.11007 8.9074 5.49845C9.51903 4.88682 10.2983 4.4703 11.1466 4.30156C11.995 4.13281 12.8743 4.21942 13.6734 4.55043C14.4725 4.88143 15.1556 5.44197 15.6361 6.16117C16.1167 6.88036 16.3732 7.7259 16.3732 8.59086C16.3732 9.75074 15.9124 10.8631 15.0922 11.6833C14.2721 12.5034 13.1597 12.9642 11.9998 12.9642Z" fill="#4EC259"/>
<path d="M11.9994 11.0768C13.3727 11.0768 14.486 9.96353 14.486 8.59018C14.486 7.21683 13.3727 6.10352 11.9994 6.10352C10.626 6.10352 9.5127 7.21683 9.5127 8.59018C9.5127 9.96353 10.626 11.0768 11.9994 11.0768Z" fill="#4EC259"/>
</g>
<defs>
<clipPath id="clip0_924_906">
<rect width="24" height="24" fill="white" transform="translate(0 0.296875)"/>
</clipPath>
</defs>
</svg>
