<svg width="24" height="25" viewBox="0 0 24 25" fill="none" xmlns="http://www.w3.org/2000/svg">
<path d="M22.5337 10.6242V9.28847C22.5337 6.8868 21.4472 4.62875 19.4741 2.9304C17.5009 1.23205 14.8768 0.296875 12.0863 0.296875C9.29573 0.296875 6.67251 1.23224 4.69934 2.9304C2.72617 4.62855 1.63968 6.8868 1.63968 9.28847V10.6218H1.55794C1.14488 10.6222 0.748853 10.7636 0.456773 11.015C0.164693 11.2664 0.000418414 11.6073 0 11.9628L0 17.1622C0.000418414 17.5177 0.164693 17.8586 0.456773 18.11C0.748853 18.3614 1.14488 18.5028 1.55794 18.5032H2.07545C2.38204 18.5034 2.68182 18.4254 2.93684 18.2789C2.96242 18.6258 3.14347 18.9505 3.44183 19.1847C3.74018 19.4189 4.13252 19.5443 4.53616 19.5343C4.93979 19.5244 5.32318 19.38 5.6055 19.1315C5.88783 18.883 6.04703 18.5499 6.04956 18.2023V10.9227C6.04703 10.5751 5.88783 10.242 5.6055 9.99352C5.32318 9.74503 4.93979 9.6006 4.53616 9.59067C4.13252 9.58074 3.74018 9.70609 3.44183 9.9403C3.14347 10.1745 2.96242 10.4993 2.93684 10.8461C2.7563 10.7426 2.55254 10.6728 2.33872 10.6413V9.28847C2.33872 4.66217 6.71157 0.899333 12.0863 0.899333C17.4609 0.899333 21.8338 4.66217 21.8338 9.28847V10.6242C21.5585 10.6378 21.2925 10.7144 21.0632 10.8461C21.0384 10.4987 20.8577 10.1732 20.5592 9.93839C20.2607 9.70358 19.8679 9.57786 19.4636 9.5878C19.0594 9.59774 18.6755 9.74257 18.3931 9.99167C18.1107 10.2408 17.9519 10.5746 17.9502 10.9227V18.2021C17.9505 18.4894 18.0578 18.7689 18.2563 18.9998C18.4548 19.2307 18.7341 19.4006 19.0532 19.4848C18.8459 19.9569 18.5447 20.3943 18.1631 20.7775C17.1791 21.7634 15.7754 22.2934 13.9874 22.3527C13.9711 21.9952 13.7948 21.657 13.4954 21.4088C13.1959 21.1607 12.7966 21.0219 12.3809 21.0214H10.9282C10.5018 21.0219 10.0931 21.1678 9.79163 21.4273C9.49016 21.6868 9.32059 22.0386 9.32011 22.4055V22.9132C9.32071 23.2801 9.49034 23.6318 9.79179 23.8912C10.0932 24.1506 10.5019 24.2965 10.9282 24.2969H12.3809C12.799 24.2964 13.2005 24.156 13.5004 23.9053C13.8003 23.6546 13.9751 23.3133 13.9878 22.9536C16.4914 22.8733 17.9373 21.9368 18.7172 21.145C19.1888 20.6677 19.5491 20.1167 19.7784 19.5221C20.1237 19.4692 20.4382 19.3177 20.6712 19.092C20.9042 18.8663 21.042 18.5797 21.0625 18.2783C21.3175 18.425 21.6174 18.5032 21.9241 18.503H22.4434C22.8565 18.5026 23.2525 18.3612 23.5446 18.1098C23.8367 17.8584 24.0009 17.5176 24.0014 17.162V11.9626C24.0008 11.6206 23.8487 11.2916 23.5759 11.0429C23.3032 10.7941 22.9304 10.6444 22.5337 10.6242Z" fill="#4EC259"/>
</svg>
