<svg width="24" height="25" viewBox="0 0 24 25" fill="none" xmlns="http://www.w3.org/2000/svg">
<g clip-path="url(#clip0_924_907)">
<path d="M21.5531 4.29609C21.4622 4.28672 21.3706 4.28672 21.2798 4.29609H2.6131C2.49346 4.29793 2.37462 4.31587 2.25977 4.34942L11.8931 13.9428L21.5531 4.29609Z" fill="#4EC259"/>
<path d="M22.5395 5.22266L12.8328 14.8893C12.583 15.1377 12.245 15.277 11.8928 15.277C11.5406 15.277 11.2026 15.1377 10.9528 14.8893L1.3328 5.29599C1.30323 5.40468 1.28755 5.51669 1.28613 5.62932V18.9627C1.28613 19.3163 1.42661 19.6554 1.67666 19.9055C1.92671 20.1555 2.26584 20.296 2.61947 20.296H21.2861C21.6398 20.296 21.9789 20.1555 22.2289 19.9055C22.479 19.6554 22.6195 19.3163 22.6195 18.9627V5.62932C22.6142 5.49043 22.5872 5.35321 22.5395 5.22266ZM3.5328 18.9627H2.60613V18.0093L7.4528 13.2027L8.3928 14.1427L3.5328 18.9627ZM21.2728 18.9627H20.3395L15.4795 14.1427L16.4195 13.2027L21.2661 18.0093L21.2728 18.9627Z" fill="#4EC259"/>
</g>
<defs>
<clipPath id="clip0_924_907">
<rect width="24" height="24" fill="white" transform="translate(0 0.296875)"/>
</clipPath>
</defs>
</svg>
