<svg width="24" height="25" viewBox="0 0 24 25" fill="none" xmlns="http://www.w3.org/2000/svg">
<path d="M11.7344 12.2969C14.4958 12.2969 16.7344 10.0583 16.7344 7.29688C16.7344 4.53545 14.4958 2.29688 11.7344 2.29688C8.97295 2.29688 6.73438 4.53545 6.73438 7.29688C6.73438 10.0583 8.97295 12.2969 11.7344 12.2969Z" stroke="#868686" stroke-width="2"/>
<path d="M16.7344 14.2969H17.0864C17.8175 14.2971 18.5234 14.5642 19.0714 15.0482C19.6194 15.5321 19.9718 16.1994 20.0624 16.9249L20.4534 20.0489C20.4886 20.3303 20.4635 20.616 20.3798 20.887C20.2961 21.158 20.1558 21.4081 19.9681 21.6207C19.7803 21.8333 19.5495 22.0035 19.291 22.1201C19.0324 22.2367 18.7521 22.2969 18.4684 22.2969H5.00044C4.71682 22.2969 4.43643 22.2367 4.17788 22.1201C3.91933 22.0035 3.68854 21.8333 3.50081 21.6207C3.31309 21.4081 3.17272 21.158 3.08904 20.887C3.00536 20.616 2.98027 20.3303 3.01544 20.0489L3.40544 16.9249C3.49613 16.1991 3.84885 15.5315 4.39727 15.0475C4.94568 14.5635 5.65201 14.2966 6.38344 14.2969H6.73444" stroke="#868686" stroke-width="2" stroke-linecap="round" stroke-linejoin="round"/>
</svg>
