<svg width="20" height="20" viewBox="0 0 20 20" fill="none" xmlns="http://www.w3.org/2000/svg">
<path d="M1.44297 3.89141L3.93906 1.39766C4.24375 1.09297 4.65156 0.921875 5.08281 0.921875C5.51406 0.921875 5.92188 1.09063 6.22656 1.39766L8.91484 4.08125C9.21953 4.38594 9.39062 4.79609 9.39062 5.22734C9.39062 5.66094 9.22188 6.06641 8.91484 6.37344L6.81484 8.47578C7.29324 9.59044 7.98061 10.6032 8.83984 11.4594C9.7 12.3242 10.7055 13.0062 11.8211 13.4891L13.9211 11.3867C14.2258 11.082 14.6336 10.9109 15.0648 10.9109C15.2776 10.9101 15.4883 10.9518 15.6847 11.0335C15.8811 11.1152 16.0592 11.2353 16.2086 11.3867L18.8992 14.0703C19.2039 14.375 19.375 14.7852 19.375 15.2164C19.375 15.65 19.2062 16.0555 18.8992 16.3625L16.4055 18.8562C15.8852 19.3766 15.168 19.6742 14.432 19.6742C14.2797 19.6742 14.132 19.6625 13.982 19.6367C10.8789 19.1258 7.79922 17.4734 5.3125 14.9891C2.82812 12.5 1.17812 9.42031 0.662498 6.31484C0.514843 5.43359 0.810158 4.52656 1.44297 3.89141ZM2.32422 6.03594C2.78125 8.79922 4.26719 11.5555 6.50547 13.7937C8.74375 16.032 11.4977 17.518 14.2609 17.975C14.6078 18.0336 14.9641 17.9164 15.2172 17.6656L17.6664 15.2164L15.0695 12.6172L12.2617 15.4297L12.2406 15.4508L11.7344 15.2633C10.1994 14.6989 8.80547 13.8075 7.64924 12.6509C6.49301 11.4943 5.60211 10.1 5.03828 8.56484L4.85078 8.05859L7.68203 5.22969L5.08516 2.63047L2.63594 5.07969C2.38281 5.33281 2.26562 5.68906 2.32422 6.03594Z" fill="#868686"/>
</svg>
