<svg width="18" height="19" viewBox="0 0 18 19" fill="none" xmlns="http://www.w3.org/2000/svg">
<path d="M17.4873 14.4371L13.4223 10.7411C13.2301 10.5665 12.9776 10.4733 12.7181 10.4813C12.4585 10.4894 12.2123 10.5979 12.0313 10.7841L9.63828 13.2451C9.06228 13.1351 7.90428 12.7741 6.71228 11.5851C5.52028 10.3921 5.15928 9.23112 5.05228 8.65911L7.51128 6.26511C7.69769 6.08424 7.80642 5.83794 7.81444 5.57832C7.82247 5.31871 7.72917 5.06615 7.55428 4.87411L3.85928 0.810114C3.68432 0.617471 3.44116 0.500618 3.18143 0.484374C2.92171 0.468129 2.66588 0.553772 2.46828 0.723114L0.298282 2.58411C0.125393 2.75763 0.0222015 2.98856 0.00828196 3.23311C-0.00671804 3.48311 -0.292718 9.40511 4.29928 13.9991C8.30528 18.0041 13.3233 18.2971 14.7053 18.2971C14.9073 18.2971 15.0313 18.2911 15.0643 18.2891C15.3088 18.2754 15.5396 18.1718 15.7123 17.9981L17.5723 15.8271C17.7423 15.6301 17.8286 15.3745 17.8127 15.1148C17.7968 14.8551 17.68 14.6119 17.4873 14.4371Z" fill="#4EC259"/>
</svg>
